{
  "accessors": [
    {
      "bufferView": 2,
      "componentType": 5126,
      "count": 4574,
      "max": [
        111.27487182617188,
        96.67214965820313,
        111.87527465820313
      ],
      "min": [
        -111.53925323486328,
        -118.09132385253906,
        -115.05574798583984
      ],
      "type": "VEC3"
    },
    {
      "bufferView": 2,
      "byteOffset": 54888,
      "componentType": 5126,
      "count": 4574,
      "max": [
        0.9998495578765869,
        1.0,
        0.9998371601104736
      ],
      "min": [
        -0.999742329120636,
        -1.0,
        -0.9999081492424011
      ],
      "type": "VEC3"
    },
    {
      "bufferView": 1,
      "componentType": 5126,
      "count": 4574,
      "max": [
        1.0833333730697632,
        0.9940053224563599
      ],
      "min": [
        1.8312692191102542e-05,
        0.0
      ],
      "type": "VEC2"
    },
    {
      "bufferView": 1,
      "byteOffset": 36592,
      "componentType": 5126,
      "count": 4574,
      "max": [
        1.0833333730697632,
        0.9940053224563599
      ],
      "min": [
        1.8312692191102542e-05,
        0.0
      ],
      "type": "VEC2"
    },
    {
      "bufferView": 1,
      "byteOffset": 73184,
      "componentType": 5126,
      "count": 4574,
      "max": [
        1.0833333730697632,
        0.9940053224563599
      ],
      "min": [
        1.8312692191102542e-05,
        0.0
      ],
      "type": "VEC2"
    },
    {
      "bufferView": 1,
      "byteOffset": 109776,
      "componentType": 5126,
      "count": 4574,
      "max": [
        1.0833333730697632,
        0.9940053224563599
      ],
      "min": [
        1.8312692191102542e-05,
        0.0
      ],
      "type": "VEC2"
    },
    {
      "bufferView": 1,
      "byteOffset": 146368,
      "componentType": 5126,
      "count": 4574,
      "max": [
        1.0833333730697632,
        0.9940053224563599
      ],
      "min": [
        1.8312692191102542e-05,
        0.0
      ],
      "type": "VEC2"
    },
    {
      "bufferView": 1,
      "byteOffset": 182960,
      "componentType": 5126,
      "count": 4574,
      "max": [
        1.0833333730697632,
        0.9940053224563599
      ],
      "min": [
        1.8312692191102542e-05,
        0.0
      ],
      "type": "VEC2"
    },
    {
      "bufferView": 1,
      "byteOffset": 219552,
      "componentType": 5126,
      "count": 4574,
      "max": [
        1.0833333730697632,
        0.9940053224563599
      ],
      "min": [
        1.8312692191102542e-05,
        0.0
      ],
      "type": "VEC2"
    },
    {
      "bufferView": 1,
      "byteOffset": 256144,
      "componentType": 5126,
      "count": 4574,
      "max": [
        1.0833333730697632,
        0.9940053224563599
      ],
      "min": [
        1.8312692191102542e-05,
        0.0
      ],
      "type": "VEC2"
    },
    {
      "bufferView": 1,
      "byteOffset": 292736,
      "componentType": 5126,
      "count": 4574,
      "max": [
        1.0833333730697632,
        0.9940053224563599
      ],
      "min": [
        1.8312692191102542e-05,
        0.0
      ],
      "type": "VEC2"
    },
    {
      "bufferView": 1,
      "byteOffset": 329328,
      "componentType": 5126,
      "count": 4574,
      "max": [
        1.0833333730697632,
        0.9940053224563599
      ],
      "min": [
        1.8312692191102542e-05,
        0.0
      ],
      "type": "VEC2"
    },
    {
      "bufferView": 0,
      "componentType": 5125,
      "count": 27072,
      "type": "SCALAR"
    },
    {
      "bufferView": 2,
      "byteOffset": 109776,
      "componentType": 5126,
      "count": 5552,
      "max": [
        6.597391605377197,
        26.559871673583984,
        4.2844014167785645
      ],
      "min": [
        -7.573572635650635,
        -26.772174835205078,
        -28.0606746673584
      ],
      "type": "VEC3"
    },
    {
      "bufferView": 2,
      "byteOffset": 176400,
      "componentType": 5126,
      "count": 5552,
      "max": [
        0.9998601675033569,
        0.9996981620788574,
        1.0
      ],
      "min": [
        -0.9999622702598572,
        -0.9999967813491821,
        -1.0
      ],
      "type": "VEC3"
    },
    {
      "bufferView": 1,
      "byteOffset": 365920,
      "componentType": 5126,
      "count": 5552,
      "max": [
        1.1834832429885864,
        1.0
      ],
      "min": [
        0.0,
        0.0
      ],
      "type": "VEC2"
    },
    {
      "bufferView": 1,
      "byteOffset": 410336,
      "componentType": 5126,
      "count": 5552,
      "max": [
        1.1834832429885864,
        1.0
      ],
      "min": [
        0.0,
        0.0
      ],
      "type": "VEC2"
    },
    {
      "bufferView": 1,
      "byteOffset": 454752,
      "componentType": 5126,
      "count": 5552,
      "max": [
        1.1834832429885864,
        1.0
      ],
      "min": [
        0.0,
        0.0
      ],
      "type": "VEC2"
    },
    {
      "bufferView": 1,
      "byteOffset": 499168,
      "componentType": 5126,
      "count": 5552,
      "max": [
        1.1834832429885864,
        1.0
      ],
      "min": [
        0.0,
        0.0
      ],
      "type": "VEC2"
    },
    {
      "bufferView": 1,
      "byteOffset": 543584,
      "componentType": 5126,
      "count": 5552,
      "max": [
        1.1834832429885864,
        1.0
      ],
      "min": [
        0.0,
        0.0
      ],
      "type": "VEC2"
    },
    {
      "bufferView": 1,
      "byteOffset": 588000,
      "componentType": 5126,
      "count": 5552,
      "max": [
        1.1834832429885864,
        1.0
      ],
      "min": [
        0.0,
        0.0
      ],
      "type": "VEC2"
    },
    {
      "bufferView": 1,
      "byteOffset": 632416,
      "componentType": 5126,
      "count": 5552,
      "max": [
        1.1834832429885864,
        1.0
      ],
      "min": [
        0.0,
        0.0
      ],
      "type": "VEC2"
    },
    {
      "bufferView": 1,
      "byteOffset": 676832,
      "componentType": 5126,
      "count": 5552,
      "max": [
        1.1834832429885864,
        1.0
      ],
      "min": [
        0.0,
        0.0
      ],
      "type": "VEC2"
    },
    {
      "bufferView": 1,
      "byteOffset": 721248,
      "componentType": 5126,
      "count": 5552,
      "max": [
        1.1834832429885864,
        1.0
      ],
      "min": [
        0.0,
        0.0
      ],
      "type": "VEC2"
    },
    {
      "bufferView": 1,
      "byteOffset": 765664,
      "componentType": 5126,
      "count": 5552,
      "max": [
        1.1834832429885864,
        1.0
      ],
      "min": [
        0.0,
        0.0
      ],
      "type": "VEC2"
    },
    {
      "bufferView": 0,
      "byteOffset": 108288,
      "componentType": 5125,
      "count": 32064,
      "type": "SCALAR"
    },
    {
      "bufferView": 2,
      "byteOffset": 243024,
      "componentType": 5126,
      "count": 752,
      "max": [
        5.804858684539795,
        25.650222778320313,
        28.024044036865234
      ],
      "min": [
        -35.17382049560547,
        -32.496124267578125,
        -4.109561443328857
      ],
      "type": "VEC3"
    },
    {
      "bufferView": 2,
      "byteOffset": 252048,
      "componentType": 5126,
      "count": 752,
      "max": [
        0.19674426317214966,
        0.9078918099403381,
        0.9987345337867737
      ],
      "min": [
        -0.995876133441925,
        -0.6835712790489197,
        -0.9991846680641174
      ],
      "type": "VEC3"
    },
    {
      "bufferView": 1,
      "byteOffset": 810080,
      "componentType": 5126,
      "count": 752,
      "max": [
        0.83294278383255,
        0.8568025827407837
      ],
      "min": [
        0.628049373626709,
        0.5660707950592041
      ],
      "type": "VEC2"
    },
    {
      "bufferView": 1,
      "byteOffset": 816096,
      "componentType": 5126,
      "count": 752,
      "max": [
        0.83294278383255,
        0.8568025827407837
      ],
      "min": [
        0.628049373626709,
        0.5660707950592041
      ],
      "type": "VEC2"
    },
    {
      "bufferView": 1,
      "byteOffset": 822112,
      "componentType": 5126,
      "count": 752,
      "max": [
        0.83294278383255,
        0.8568025827407837
      ],
      "min": [
        0.628049373626709,
        0.5660707950592041
      ],
      "type": "VEC2"
    },
    {
      "bufferView": 1,
      "byteOffset": 828128,
      "componentType": 5126,
      "count": 752,
      "max": [
        0.83294278383255,
        0.8568025827407837
      ],
      "min": [
        0.628049373626709,
        0.5660707950592041
      ],
      "type": "VEC2"
    },
    {
      "bufferView": 1,
      "byteOffset": 834144,
      "componentType": 5126,
      "count": 752,
      "max": [
        0.83294278383255,
        0.8568025827407837
      ],
      "min": [
        0.628049373626709,
        0.5660707950592041
      ],
      "type": "VEC2"
    },
    {
      "bufferView": 1,
      "byteOffset": 840160,
      "componentType": 5126,
      "count": 752,
      "max": [
        0.83294278383255,
        0.8568025827407837
      ],
      "min": [
        0.628049373626709,
        0.5660707950592041
      ],
      "type": "VEC2"
    },
    {
      "bufferView": 1,
      "byteOffset": 846176,
      "componentType": 5126,
      "count": 752,
      "max": [
        0.83294278383255,
        0.8568025827407837
      ],
      "min": [
        0.628049373626709,
        0.5660707950592041
      ],
      "type": "VEC2"
    },
    {
      "bufferView": 1,
      "byteOffset": 852192,
      "componentType": 5126,
      "count": 752,
      "max": [
        0.83294278383255,
        0.8568025827407837
      ],
      "min": [
        0.628049373626709,
        0.5660707950592041
      ],
      "type": "VEC2"
    },
    {
      "bufferView": 1,
      "byteOffset": 858208,
      "componentType": 5126,
      "count": 752,
      "max": [
        0.83294278383255,
        0.8568025827407837
      ],
      "min": [
        0.628049373626709,
        0.5660707950592041
      ],
      "type": "VEC2"
    },
    {
      "bufferView": 1,
      "byteOffset": 864224,
      "componentType": 5126,
      "count": 752,
      "max": [
        0.83294278383255,
        0.8568025827407837
      ],
      "min": [
        0.628049373626709,
        0.5660707950592041
      ],
      "type": "VEC2"
    },
    {
      "bufferView": 0,
      "byteOffset": 236544,
      "componentType": 5125,
      "count": 2418,
      "type": "SCALAR"
    }
  ],
  "asset": {
    "extras": {
      "author": "BlockedGravity (https://sketchfab.com/blockedgravity)",
      "license": "CC-BY-4.0 (http://creativecommons.org/licenses/by/4.0/)",
      "source": "https://sketchfab.com/3d-models/red-apple-with-green-leaf-04171af27fa541dead4476307a5559df",
      "title": "Red Apple With Green Leaf"
    },
    "generator": "Sketchfab-12.67.0",
    "version": "2.0"
  },
  "bufferViews": [
    {
      "buffer": 0,
      "byteLength": 246216,
      "name": "floatBufferViews",
      "target": 34963
    },
    {
      "buffer": 0,
      "byteLength": 870240,
      "byteOffset": 246216,
      "byteStride": 8,
      "name": "floatBufferViews",
      "target": 34962
    },
    {
      "buffer": 0,
      "byteLength": 261072,
      "byteOffset": 1116456,
      "byteStride": 12,
      "name": "floatBufferViews",
      "target": 34962
    }
  ],
  "buffers": [
    {
      "byteLength": 1377528,
      "uri": "scene.bin"
    }
  ],
  "images": [
    {
      "uri": "textures/material_baseColor.jpeg"
    }
  ],
  "materials": [
    {
      "doubleSided": true,
      "name": "material",
      "pbrMetallicRoughness": {
        "baseColorTexture": {
          "index": 0
        },
        "metallicFactor": 0.0,
        "roughnessFactor": 0.35194359760000005
      }
    },
    {
      "doubleSided": true,
      "name": "Mat.1",
      "pbrMetallicRoughness": {
        "baseColorFactor": [
          0.1028690976,
          0.0535849331,
          0.023890406,
          1.0
        ],
        "metallicFactor": 0.520007622,
        "roughnessFactor": 0.3458460366
      }
    },
    {
      "doubleSided": true,
      "name": "Mat_0",
      "pbrMetallicRoughness": {
        "baseColorFactor": [
          0.1006388311,
          0.2019596836,
          0.0102134724,
          1.0
        ],
        "metallicFactor": 0.0,
        "roughnessFactor": 0.43121189019999995
      }
    }
  ],
  "meshes": [
    {
      "name": "Apple_Mat_0",
      "primitives": [
        {
          "attributes": {
            "NORMAL": 1,
            "POSITION": 0,
            "TEXCOORD_0": 2,
            "TEXCOORD_1": 3,
            "TEXCOORD_2": 4,
            "TEXCOORD_3": 5,
            "TEXCOORD_4": 6,
            "TEXCOORD_5": 7,
            "TEXCOORD_6": 8,
            "TEXCOORD_7": 9,
            "TEXCOORD_8": 10,
            "TEXCOORD_9": 11
          },
          "indices": 12,
          "material": 0,
          "mode": 4
        }
      ]
    },
    {
      "name": "Wood_Mat.1_0",
      "primitives": [
        {
          "attributes": {
            "NORMAL": 14,
            "POSITION": 13,
            "TEXCOORD_0": 15,
            "TEXCOORD_1": 16,
            "TEXCOORD_2": 17,
            "TEXCOORD_3": 18,
            "TEXCOORD_4": 19,
            "TEXCOORD_5": 20,
            "TEXCOORD_6": 21,
            "TEXCOORD_7": 22,
            "TEXCOORD_8": 23,
            "TEXCOORD_9": 24
          },
          "indices": 25,
          "material": 1,
          "mode": 4
        }
      ]
    },
    {
      "name": "Leaf_Mat_0",
      "primitives": [
        {
          "attributes": {
            "NORMAL": 27,
            "POSITION": 26,
            "TEXCOORD_0": 28,
            "TEXCOORD_1": 29,
            "TEXCOORD_2": 30,
            "TEXCOORD_3": 31,
            "TEXCOORD_4": 32,
            "TEXCOORD_5": 33,
            "TEXCOORD_6": 34,
            "TEXCOORD_7": 35,
            "TEXCOORD_8": 36,
            "TEXCOORD_9": 37
          },
          "indices": 38,
          "material": 2,
          "mode": 4
        }
      ]
    }
  ],
  "nodes": [
    {
      "children": [
        1
      ],
      "matrix": [
        1.0,
        0.0,
        0.0,
        0.0,
        0.0,
        2.220446049250313e-16,
        -1.0,
        0.0,
        0.0,
        1.0,
        2.220446049250313e-16,
        0.0,
        0.0,
        0.0,
        0.0,
        1.0
      ],
      "name": "Sketchfab_model"
    },
    {
      "children": [
        2
      ],
      "matrix": [
        1.0,
        0.0,
        0.0,
        0.0,
        0.0,
        0.0,
        1.0,
        0.0,
        0.0,
        -1.0,
        0.0,
        0.0,
        0.0,
        0.0,
        0.0,
        1.0
      ],
      "name": "f18e4aa2d919440c9feff35a7e922c19.fbx"
    },
    {
      "children": [
        3,
        5,
        7
      ],
      "name": "RootNode"
    },
    {
      "children": [
        4
      ],
      "matrix": [
        1.0,
        0.0,
        -1.8735013540549514e-16,
        0.0,
        0.0,
        1.0,
        0.0,
        0.0,
        1.8735013540549514e-16,
        0.0,
        1.0,
        0.0,
        0.0,
        118.09132385253906,
        0.0,
        1.0
      ],
      "name": "Apple"
    },
    {
      "mesh": 0,
      "name": "Apple_Mat_0"
    },
    {
      "children": [
        6
      ],
      "matrix": [
        1.0,
        0.0,
        -1.8735013540549514e-16,
        0.0,
        0.0,
        1.0,
        0.0,
        0.0,
        1.8735013540549514e-16,
        0.0,
        1.0,
        0.0,
        0.0,
        219.8677978515625,
        0.0,
        1.0
      ],
      "name": "Wood"
    },
    {
      "mesh": 1,
      "name": "Wood_Mat.1_0"
    },
    {
      "children": [
        8
      ],
      "matrix": [
        -0.32070875418922573,
        0.808616856876886,
        -0.4932389621278316,
        0.0,
        -0.1999493042758732,
        -0.5668082662950438,
        -0.7992175329528255,
        0.0,
        -0.9258326904500559,
        -0.15769327200027344,
        0.34346275090591516,
        0.0,
        8.089736938476563,
        253.86495971679688,
        -71.09569549560547,
        1.0
      ],
      "name": "Leaf"
    },
    {
      "mesh": 2,
      "name": "Leaf_Mat_0"
    }
  ],
  "samplers": [
    {
      "magFilter": 9729,
      "minFilter": 9987,
      "wrapS": 10497,
      "wrapT": 10497
    }
  ],
  "scene": 0,
  "scenes": [
    {
      "name": "Sketchfab_Scene",
      "nodes": [
        0
      ]
    }
  ],
  "textures": [
    {
      "sampler": 0,
      "source": 0
    }
  ]
}
